<?xml version="1.0" encoding="UTF-8"?><svg id="Layer_2" xmlns="http://www.w3.org/2000/svg" viewBox="0 0 368.99 153.51"><g id="Layer_1-2"><g><path d="M368.99,111.25c-2.89,4.05-5.58,8.27-8.74,12.1-2.11,2.56-4.72,4.81-7.42,6.77-2.88,2.1-5.75,.92-6.29-2.66-.33-2.22,.12-4.71,.82-6.9,.97-3.05,2.5-5.93,3.77-8.86-3.51-1.98-5.71-.96-7.79,2.16-2.48,3.74-5.37,7.23-8.36,10.58-2.11,2.37-4.39,5.13-8.29,3.5-3.68-1.53-5.37-4.29-4.92-8.3,.04-.36-.09-.74-.24-1.83-1.61,2.3-2.82,4.23-4.24,6-1.6,1.99-2.99,4.61-6.33,3.37-3.21-1.19-5.36-4.58-4.4-8.16,1.16-4.3,2.96-8.43,4.58-12.6,.7-1.8,1.61-3.52,2.43-5.28l-.99-.6c-4.79,6.35-9.55,12.72-14.41,19.01-.87,1.12-2.21,1.89-3.33,2.81-.58-1.4-1.18-2.78-1.71-4.2-.15-.4-.09-.88-.16-1.71-4.63,5.93-8.87,11.6-13.4,17.04-2.96,3.55-6.97,2.76-8.25-1.56-.54-1.82-.38-3.95-.12-5.88,.42-3.09,1.2-6.12,1.8-9.19,.05-.23-.07-.49-.22-1.39-1.89,2.28-3.5,4.24-5.14,6.17-1.38,1.61-2.71,3.28-4.24,4.74-1.92,1.84-4.16,2.8-6.8,1.37-2.83-1.54-4.72-3.72-4.52-7.14,.03-.52,1.11-.97,1.16-1.5,.15-1.78,.06-3.58,.06-6.49-4.47,3.66-8.01,6.38-11.32,9.36-1.02,.92-1.54,2.51-2.05,3.89-2.54,6.9-4.98,13.84-7.49,20.75-.3,.81-.8,1.56-1.24,2.31-2.44,4.13-5.11,5.44-8.1,4.01-3.55-1.7-5.64-6.7-3.32-10.24,3.39-5.17,7.27-10.17,11.69-14.47,3.63-3.53,5.94-7.18,6.3-13.15-2.43,3.27-4.13,6.04-6.34,8.32-1.33,1.37-3.88,3.09-5.14,2.63-1.71-.62-3.53-3.07-3.81-4.96-.46-3.08,.28-6.34,.59-10.49-1.68,1.14-3.4,1.98-4.7,3.26-3.1,3.02-5.8,6.47-9.04,9.31-2.66,2.33-5.9,1.95-8.61-.23-2.83-2.27-4.4-5.39-3.14-8.96,1.79-5.09,4-10.03,9.56-12.35,.87-.36,1.54-1.49,2.03-2.41,2.33-4.42,5.1-6.43,7.85-5.52,4.01,1.33,5.79,4.91,4.94,10.01-.28,1.68-.67,3.34-1.01,5.02l.79,.98c2.05-1.25,4.36-2.22,6.08-3.82,3.52-3.27,6.05-7.75,11.37-8.66,3.59-.62,5.45,1.01,4.99,4.49-8.29,.82-17.76,12.8-16.72,22.49,2.22-2.55,4.1-4.41,5.62-6.53,2.41-3.34,4.61-6.84,6.85-10.3,1.32-2.04,3.04-3.17,5.33-1.86,2.49,1.44,1.23,3.37,.28,5.18-1.19,2.28-2.33,4.59-3.11,7.17,4.7-4.28,11.13-6.39,14.03-12.74,1.13-2.48,3.38-4.67,5.6-6.36,2.54-1.93,5.61-1.55,7.89,.72,2.37,2.36,1.18,5.04-.54,7.08-1.83,2.17-4.12,3.97-6.33,5.79-1.29,1.06-3.67,1.57-4.06,2.81-.95,2.98-1.03,6.25-1.47,9.46,7.64,.24,19.63-16.23,23.58-31.77h-13.89l-.05-1.23c4.12-.35,8.23-.86,12.35-.99,2.34-.08,3.45-1.02,4.45-3.09,1.83-3.81,4.06-7.42,6.2-11.07,.49-.84,1.23-2.01,1.99-2.12,1.96-.29,4-.07,6.01-.06-.47,1.44-.7,3.01-1.45,4.29-2.18,3.71-4.56,7.3-7.22,11.51,3.37,0,5.87,.31,8.23-.14,1.11-.21,2.2-1.71,2.87-2.88,4.51-7.89,8.74-15.94,13.43-23.71,1.35-2.24,3.69-4.1,5.97-5.49,2.98-1.81,5.42-.4,5.85,3.04,.18,1.45,.11,3-.16,4.44-2.33,12.41-8.99,22.51-17.96,30.9-5.07,4.75-6.57,10.59-8.53,17.28,3.96-4.86,7.36-9.28,11.06-13.44,1.88-2.11,3.94-5.59,7.34-3.38,3.46,2.25,.81,5.32-.18,8.03-1.93,5.28-3.78,10.59-4.96,16.26,5.05-2.81,8.71-6.61,11.34-11.41,1.49-2.73,2.87-5.54,4.65-8.07,.96-1.36,2.5-2.5,4.02-3.23,2.6-1.26,5.68-.97,7.05,1.44,.91,1.6,.71,4.88-.39,6.36-2.02,2.71-4.93,4.87-7.76,6.82-2.31,1.59-5.3,8.45-3.93,10.9,.34,.61,2.36,1.03,2.93,.61,2.4-1.75,4.74-3.69,6.74-5.88,2.18-2.39,4.1-5.05,5.85-7.78,.94-1.46,1.59-3.26,1.82-4.98,.54-4.11,3.38-5.84,7.18-3.76-.5,.83-1.04,1.62-1.48,2.46-.39,.75-.66,1.56-1.19,2.82,1.83,.33,3.35,.67,4.89,.87,3.59,.45,4.11,1.32,2.74,4.63-1.53,3.69-3.06,7.38-4.54,11.09-.35,.88-.5,1.83,0,3.35,1.47-1.34,3.15-2.53,4.37-4.06,3.27-4.1,6.32-8.38,9.54-12.53,.72-.93,1.78-1.6,2.69-2.39v3Zm-70.77-18.71c-2.81,0-5.54-.16-8.24,.1-.82,.08-1.91,1.17-2.22,2.03-3.61,10.08-7.13,20.19-10.55,30.34-.55,1.64-.49,3.48-.83,6.08,1.37-.91,1.98-1.14,2.33-1.57,4.66-5.69,9.33-11.39,13.89-17.16,.82-1.04,1.41-2.37,1.74-3.66,1.35-5.31,2.56-10.65,3.87-16.16Zm24.84-30.96c-6.27,4.44-16.04,23.97-16.69,32.95,7.81-10.45,15.09-20.26,16.69-32.95Zm-116.28,45.85c-1.32,3.41-2.83,7.03-4.07,10.74-.29,.87,.02,2.49,.65,2.96,.65,.48,2.16,.26,3.06-.15,4.03-1.86,6.27-5.3,7.97-8.76-2.65-1.66-4.91-3.08-7.61-4.78Zm27.14,22.51l-1.08-.57c-3.32,4.32-6.82,8.53-9.9,13.02-1.63,2.37-2.36,5.22,.56,8.13,6.43-5.58,7.47-13.57,10.42-20.58Zm-15.29-30.52c-.38-.95-.82-2.02-1.26-3.1-1.13,.59-2.8,.9-3.29,1.84-1.38,2.58-2.55,5.36-3.19,8.21-.2,.89,1.34,2.74,2.45,3.17,.75,.29,2.78-.92,3.16-1.88,1-2.51,1.41-5.25,2.13-8.22Zm41.78,10.32c6.56-2.97,8.2-6.06,5.71-10.41-2.06,3.75-3.88,7.08-5.71,10.41Zm75.5-10.73c-2.25,4.07-4.13,7.47-6.5,11.75,6.63-3.29,8.54-6.57,6.5-11.75Z"/><path d="M269.36,53.74c3.96-4.49,7.92-8.97,11.93-13.51,.41,.51,.7,.8,.67,.85-3.76,5.32-7.24,10.89-11.48,15.81-1.87,2.17-6.21-.19-6.39-3.72-.19-3.75,.59-7.59,1.28-11.33,.34-1.87,1.42-3.61,1.49-5.8-2.4,3.56-4.71,7.19-7.25,10.64-.88,1.2-2.35,1.97-3.56,2.93-.42-1.53-1.39-3.17-1.14-4.58,.56-3.14,1.72-6.17,2.68-9.23,.39-1.24,.89-2.44,1.34-3.66l-1.31-.64c-3.83,7.06-7.66,14.12-11.93,21.99-1.59-1.6-3.11-3.13-4.75-4.77-2.71,1.61-4.96,6.49-9.34,3.72-1.6-1.01-1.73-4.34-2.47-6.44-1.44,1.56-3.39,3.92-5.6,6.01-4.82,4.55-7.2,3.85-8.74-2.38-5.76,5.89-9.77,4.75-12.45-3.76-5.8,4.37-11.73,8.15-13.29,16.21-1.1,5.69-3.61,11.1-5.53,16.76,4.3-.62,9.14-.37,13.06-2.15,4.28-1.94,7.67-2.35,12.23-.97,3.95,1.2,8.55,.25,12.86,.25l.19,.97c-3.61,.89-7.2,2.42-10.84,2.52-5.95,.17-8.96,3.01-11.02,8.3-4.43,11.39-9.24,22.64-13.99,33.9-1.06,2.51-2.25,5.05-3.84,7.25-2.66,3.68-6.38,4.03-9.72,1.06-3.49-3.11-4.49-7.2-3.56-12.21,2.51,3.01,5.02,6.02,7.93,9.51,1.29-1.89,2.45-3.07,3-4.48,5.16-13.38,10.21-26.81,15.41-40.52-5.87,.88-11.64,1.91-17.45,2.51-1.77,.18-4.46-.21-5.33-1.39-1.49-2.01-2.68-4.9-2.48-7.29,.2-2.37,2.05-4.77,3.61-6.82,2.25-2.98,4.58-6.06,7.45-8.37,4.58-3.67,7.2-8.12,7.76-14.55-1.12,1.49-1.95,2.57-2.76,3.66-.89,1.2-1.6,2.62-2.7,3.59-1.88,1.65-3.98,4.11-6.03,4.16-1.65,.04-3.37-3-5.16-4.77-2.46,3.13-5.26,6.88-8.27,10.44-2.34,2.77-4.95,5.87-9.12,4.3-4.29-1.62-4.44-5.81-4.3-9.55,.16-4.08,.97-8.14,1.61-13.03-2.5,3.09-4.59,5.73-6.74,8.31-1.36,1.63-2.73,3.26-4.26,4.71-1.95,1.87-4.24,2.67-6.83,1.21-2.81-1.58-4.64-3.81-4.4-7.22,.03-.42,.83-.73,1.07-1.19,.82-1.6-.15-3.36-.02-4.71,.56-5.7,3.03-10.79,7.34-14.76,.89-.82,2.17-1.87,3.18-1.78,2.22,.2,5.07,.43,6.35,1.84,.99,1.1,.73,4.47-.27,5.99-1.66,2.52-4.29,4.45-6.65,6.46-1.27,1.09-3.68,1.56-4.08,2.8-.96,2.98-1.04,6.25-1.56,10.06,5.06-.55,7.51-3.65,9.93-6.45,5.68-6.55,10.11-13.78,12.42-22.34,2.47-9.13,7.27-17.22,12.8-24.84,1.42-1.95,3.09-4.09,5.84-2.94,2.88,1.21,4.18,4.1,3.28,6.85-1.7,5.17-3.64,10.39-6.35,15.08-3.49,6.04-8.09,11.42-11.73,17.38-4.08,6.69-5.1,14.26-4.64,21.98,.16,2.65,2.11,3.25,4.14,1.05,2.95-3.2,5.5-6.77,8.07-10.3,4.69-6.43,9.04-13.13,14.02-19.32,1.63-2.03,4.65-3.29,7.28-4.09,3.13-.96,5.05,1.16,4.66,4.42-8.32,.94-17.48,12.39-16.98,22.62,2.32-2.59,4.21-4.38,5.71-6.45,2.49-3.44,4.74-7.05,7.06-10.61,1.35-2.08,3.35-3.2,5.26-1.52,.86,.76,.74,3.32,.24,4.79-.85,2.53-2.34,4.85-3.19,7.51,4.15-4.04,10.47-5.62,12.22-12.22,.8-3.01,3.33-3.01,6.41-.63-1.56,4.11-3.1,8.18-4.64,12.25l1.16,.73c3.12-.74,5.47-2.71,7.11-5.51,1.83-3.11,3.43-6.36,5.21-9.51,.61-1.07,1.26-2.44,2.24-2.88,1.18-.53,2.74-.2,4.13-.25,0,1.21,.38,2.58-.06,3.6-1.52,3.54-3.39,6.93-4.97,10.45-.56,1.25-.67,2.7-.99,4.06l1.07,.7c1.59-1.59,3.34-3.05,4.75-4.79,2.28-2.81,4.13-6,6.58-8.63,1.03-1.11,3.14-1.21,4.76-1.77,.07,1.42,.46,2.9,.16,4.24-.69,3.08-1.71,6.08-2.76,9.67,7.87-3.09,7.19-11.02,10.97-15.95,3.56,1.59,3.83,2.66,2.25,5.74-1.1,2.14-1.7,4.55-1.89,7.07,2.56-4.43,5.11-8.86,7.69-13.27,.57-.97,1.08-2.2,1.96-2.7,1.54-.87,3.36-1.27,5.06-1.86,.44,1.77,1.44,3.63,1.19,5.3-.35,2.39-1.62,4.64-2.03,7.22,1.9-2.46,3.54-5.18,5.78-7.27,1.35-1.27,3.62-1.55,5.47-2.28,.43,1.94,1.54,4.01,1.16,5.78-.72,3.38-2.37,6.54-3.44,9.86-.66,2.02-.97,4.16-1.43,6.25l1.21,.63Zm-95.64,28.17c4.34-2.41,9.61-13,10.02-20.57-3.63,4.22-7.17,8.54-10.32,13.13-1.5,2.19-1.9,4.87,.3,7.44Zm2.01-77.71c-6.81,7.68-9.07,17.35-12.03,26.7,4.91-8.51,11.38-16.29,12.03-26.7Zm-38,38.05c6.5-2.89,8.73-6.9,6.06-11.12-2.02,3.7-3.83,7.03-6.06,11.12Z"/><path d="M89.52,108.79c2.11-2.61,4.02-5.43,6.41-7.75,1.06-1.03,3.48-1.87,4.56-1.34,1.03,.5,1.81,3.07,1.5,4.46-.82,3.62-2.37,7.06-3.48,10.62-.67,2.14-1.06,4.37-1.57,6.56l1.61,.85c3.37-4.48,6.81-8.91,10.07-13.47,1.87-2.62,3.1-5.79,5.28-8.08,1.46-1.54,4.04-2.69,6.16-2.77,4.49-.17,6.8,3.78,4.17,7.39-2.2,3.02-5.38,5.43-8.44,7.69-2.08,1.54-5.21,8.9-3.79,11,.4,.6,2.37,.85,3.07,.41,5.51-3.5,9.46-8.46,12.09-14.37,1.62-3.64,2.62-7.54,4.14-11.23,.38-.93,1.58-1.84,2.57-2.11,.7-.19,2.24,.55,2.43,1.17,.25,.81-.39,1.95-.79,2.89-1.52,3.58-3.09,7.14-4.64,10.7l1.22,.64c1.83-2.52,3.65-5.05,5.51-7.54,1.05-1.4,2.12-2.79,3.28-4.1,1.46-1.66,3.02-4.08,5.49-1.99,2.36,2.01,1.64,4.63-.32,6.61-3.56,3.6-4.53,8.06-5.1,13.93,4.65-3.92,8.59-7.23,12.85-10.82,0,.96,.24,1.71-.04,2.05-3.03,3.79-5.86,7.8-9.33,11.16-2.49,2.42-7.25-.48-7.25-4.39,0-3.06,.67-6.13,1.15-10.05-2.14,3.09-4.11,5.5-5.61,8.18-1.69,3.01-3.36,4.08-5.93,.73-3.37,3.8-6.3,7.71-9.84,10.94-3.66,3.33-9.99,.65-10.55-4.16-.17-1.42-.03-2.87-.03-4.92-1.97,2.35-3.34,4.47-5.19,6.02-1.27,1.06-3.51,2.17-4.78,1.73-1.53-.53-3.49-2.66-3.53-4.15-.1-3.75,.65-7.56,1.32-11.29,.29-1.63,1.23-3.14,1.88-4.71l-.81-.44c-2.3,3.46-4.52,6.99-6.95,10.35-.83,1.15-2.2,1.9-3.33,2.83-.48-1.63-1.64-3.41-1.32-4.87,.95-4.32,2.47-8.5,4.05-13.64-6.28,6.6-8.64,14.51-12.53,21.5-4.31-.57-4.62-1.22-4.54-10.73-2.02,1.53-3.55,2.43-4.76,3.65-2.97,2.98-5.59,6.33-8.73,9.11-2.75,2.43-6.01,2.15-8.96-.06-2.82-2.11-4.26-6.18-3-9.39,1.93-4.91,4.09-9.7,9.5-11.97,.95-.4,1.61-1.73,2.17-2.76,2.24-4.12,5.04-6.02,7.71-5.1,3.9,1.33,5.78,4.96,4.97,9.68-.3,1.72-.76,3.41-1.18,5.24,2.47,.99,3.58-.22,4.38-2.4,.63-1.7,1.61-3.27,2.55-5.14,2.62,1.93,4.3,3.3,1.98,6.5-1.42,1.96-1.73,4.73-2.09,7.24,2.9-4.92,5.79-9.84,8.71-14.75,.51-.85,1.02-1.92,1.82-2.34,1.3-.68,3.61-1.66,4.12-1.15,1.1,1.1,1.98,3.18,1.76,4.67-.38,2.5-1.7,4.86-2.62,7.29l.51,.25Zm-27.07,3.81c-3.17-2.07-5.44-3.56-8.03-5.25-1.29,3.18-2.8,6.43-3.9,9.82-.39,1.21,.22,2.75,.38,4.15,1.39-.28,3.17-.11,4.08-.92,2.7-2.41,5.05-5.22,7.47-7.79Zm3.82-13.27l-1.56-3.09c-1.03,.58-2.56,.92-2.99,1.8-1.35,2.73-2.52,5.61-3.24,8.56-.2,.8,1.29,2.7,2.26,2.91,.96,.21,2.88-.82,3.27-1.77,1.03-2.49,1.46-5.24,2.26-8.41Zm54.9,.96l-1.16-.55c-1.86,3.4-3.71,6.81-5.57,10.21,6.02-2.58,7.59-5.17,6.73-9.66Z"/><path d="M96.02,44.72c4.4-10.96,9.97-21.22,17.42-30.38,2.51-3.09,5.21-6.09,8.13-8.79,3.43-3.17,7.65-2.23,8.66,2.29,.74,3.32,.46,7.22-.53,10.5-1.97,6.48-6.96,10.76-11.97,13.81,2.33,1.78,5.32,3.2,7,5.56,2.28,3.21,1.06,7.13-.5,10.41-5.6,11.82-16.26,16.35-28.17,18.6-2.72,.51-5.73-.48-9.19-.84,6.49-2.7,12.36-4.53,17.59-7.5,4.36-2.47,8.16-6.07,11.84-9.57,1.5-1.43,2.52-3.82,2.88-5.92,.85-4.88-1.76-7.09-6.52-5.7-3.02,.88-4.64-.62-6.49-3.06,1.05-.67,1.94-1.24,2.84-1.8,7.12-4.47,12.08-10.72,14.92-18.58,.46-1.27-.26-2.96-.44-4.45-1.22,.72-2.73,1.17-3.61,2.18-11.17,12.85-20.22,26.9-24.3,43.73-.31,1.27-1.8,2.26-2.74,3.37-1.23-1.22-3.42-2.36-3.53-3.68-.34-4.07-.35-8.28,.33-12.29,1.76-10.35,4.43-20.48,9.42-29.81,1.51-2.82,3.49-5.45,5.64-7.82,.79-.87,3.03-1.39,4.01-.89,1.92,.98,1.52,2.89,.27,4.46-7.73,9.73-9.84,21.66-12.93,33.2-.25,.93-.03,1.98-.03,2.97Z"/><path d="M29.57,119.84c7.46-12.32,14.89-24.7,22.47-36.99,1.36-2.21,3.23-4.14,5.09-5.98,.54-.53,1.83-.3,2.77-.42,0,1.09,.49,2.67-.05,3.2-13.85,13.47-21.17,30.94-29.55,47.78-.62,1.24-1.96,2.13-2.96,3.18-1.37-1.42-3.81-2.76-3.92-4.27-.31-4.43,.05-8.96,.61-13.4,.69-5.49,1.84-10.92,2.95-17.26-2.02,2.53-3.75,4.32-5.04,6.39-5.08,8.15-9.91,16.46-15.14,24.51-.81,1.25-3.27,2.2-4.83,2.03-2.54-.28-2.1-2.46-1.54-4.43,2.04-7.18,4.22-14.33,5.87-21.6,1.26-5.55,1.85-11.26,2.61-16.92,.11-.83-.64-1.74-.72-2.64-.15-1.66-.49-3.47,.03-4.95,.33-.93,2.39-2.14,3.11-1.85,1.39,.57,3.36,2.1,3.38,3.26,.08,4.69-.21,9.43-.89,14.07-1.02,6.97-2.47,13.88-3.88,21.55,4.03-5.66,7.6-10.74,11.25-15.78,2.93-4.04,5.85-8.09,8.98-11.98,.72-.9,2.29-1.12,3.46-1.66,.5,1.52,1.63,3.15,1.38,4.53-1.09,5.98-2.72,11.87-3.88,17.84-.77,3.98-1.08,8.06-1.56,11.81Z"/><path d="M208.27,32.06c.32-1.22,.6-2.45,.98-3.65,.63-1.96,1.19-3.96,2.05-5.82,.48-1.05,1.48-1.85,2.24-2.77,1.04,1.18,3.19,2.96,2.93,3.43-1.82,3.36-4.13,6.46-6.28,9.64l-1.91-.83Z"/><path d="M114.43,109.95c1.86-3.4,3.71-6.81,5.57-10.21"/></g></g></svg>