<?xml version="1.0" encoding="UTF-8"?><svg id="Layer_1" xmlns="http://www.w3.org/2000/svg" viewBox="0 0 325 263"><path d="M84.06,148.18c1.37-39.29,34.93-74.89,79.63-73.21,43.78,1.64,72.94,38.04,73.67,73.4-2.06-.21-4.09-.37-6.11-.62-15.63-1.96-30.39,1.51-44.82,7.1-4.1,1.59-8.29,2.95-12.37,4.58-9.02,3.6-17.9,3.28-26.96-.08-9.33-3.47-18.75-6.74-28.27-9.61-10.26-3.1-20.83-2.99-31.4-1.67-.74,.09-1.49,.16-2.23,.21-.32,.02-.64-.04-1.13-.08Z"/><path d="M99.87,162.19c10.07-.08,19.49,2.82,28.81,6.24,6.23,2.29,12.48,4.56,18.78,6.64,10.84,3.57,21.47,2.14,31.97-1.67,8.12-2.94,16.21-5.97,24.43-8.59,12.4-3.95,24.98-2.93,37.5-.45,14.56,2.89,28.42,8.07,42.24,13.3,4.05,1.53,5.89,5.71,4.48,9.53-1.47,3.97-5.51,5.86-9.77,4.42-9.99-3.37-19.84-7.22-29.98-10.05-7.47-2.09-15.27-3.21-22.99-4.19-8.88-1.12-17.26,1.53-25.55,4.43-8.69,3.05-17.34,6.29-26.2,8.74-13.13,3.63-25.86,.92-38.32-3.68-4.67-1.73-9.39-3.34-14-5.22-13.14-5.38-26.53-5.32-40.15-2.29-12.77,2.84-24.95,7.48-37.2,11.93-1.64,.59-3.61,.83-5.31,.53-3.24-.56-5.49-3.55-5.65-6.75-.16-3.34,1.64-6.27,5.1-7.46,11.54-3.96,23.05-8.04,34.72-11.57,8.77-2.65,17.88-3.74,27.08-3.85Z"/><path d="M99.87,192.19c10.07-.08,19.49,2.82,28.81,6.24,6.23,2.29,12.48,4.56,18.78,6.64,10.84,3.57,21.47,2.14,31.97-1.67,8.12-2.94,16.21-5.97,24.43-8.59,12.4-3.95,24.98-2.93,37.5-.45,14.56,2.89,28.42,8.07,42.24,13.3,4.05,1.53,5.89,5.71,4.48,9.53-1.47,3.97-5.51,5.86-9.77,4.42-9.99-3.37-19.84-7.22-29.98-10.05-7.47-2.09-15.27-3.21-22.99-4.19-8.88-1.12-17.26,1.53-25.55,4.43-8.69,3.05-17.34,6.29-26.2,8.74-13.13,3.63-25.86,.92-38.32-3.68-4.67-1.73-9.39-3.34-14-5.22-13.14-5.38-26.53-5.32-40.15-2.29-12.77,2.84-24.95,7.48-37.2,11.93-1.64,.59-3.61,.83-5.31,.53-3.24-.56-5.49-3.55-5.65-6.75-.16-3.34,1.64-6.27,5.1-7.46,11.54-3.96,23.05-8.04,34.72-11.57,8.77-2.65,17.88-3.74,27.08-3.85Z"/><path d="M168.24,39.12c0,2.57,.05,5.15-.01,7.72-.11,4.38-3.4,7.62-7.59,7.56-4.08-.06-7.3-3.27-7.36-7.54-.07-5.14-.08-10.29,0-15.43,.07-4.23,3.39-7.45,7.46-7.45,4.07,0,7.35,3.2,7.48,7.43,.08,2.57,.02,5.14,.02,7.72Z"/><path d="M47.98,159.21c-2.49,0-4.98,.06-7.47-.01-4.38-.12-7.63-3.43-7.56-7.6,.07-4.06,3.32-7.28,7.57-7.34,5.15-.07,10.29-.08,15.44,0,4.23,.07,7.44,3.39,7.44,7.47,0,4.09-3.18,7.32-7.45,7.46-2.65,.09-5.31,.02-7.97,.02Z"/><path d="M273.48,159.21c-2.66,0-5.31,.07-7.97-.02-4.23-.14-7.42-3.43-7.4-7.5,.02-4.06,3.26-7.36,7.48-7.43,5.15-.08,10.29-.08,15.44,0,4.26,.06,7.48,3.3,7.52,7.38,.05,4.08-3.12,7.39-7.36,7.55-2.57,.09-5.15,.02-7.72,.02Z"/><path d="M213.13,68.42c-5.44-.03-9.18-5.66-6.7-10.56,2.55-5.02,5.45-9.88,8.45-14.64,2.03-3.22,6.46-4.02,9.74-2.15,3.24,1.85,4.82,6.11,3.04,9.49-2.65,5.06-5.58,9.99-8.57,14.86-1.29,2.1-3.49,2.98-5.97,2.99Z"/><path d="M107.48,68.42c-1.86-.02-4.09-1.17-5.51-3.56-2.71-4.56-5.41-9.13-7.95-13.79-1.95-3.58-.59-8,2.82-9.97,3.47-2,7.88-1.02,10.04,2.5,2.82,4.59,5.58,9.23,8.06,14.01,2.61,5.01-.99,10.77-7.46,10.82Z"/><path d="M77.41,98.43c-.06,6.33-5.56,10.1-10.36,7.7-5.11-2.55-10.04-5.5-14.88-8.55-3.23-2.03-3.99-6.47-2.1-9.75,1.87-3.24,6.13-4.78,9.51-3.01,4.99,2.62,9.84,5.5,14.66,8.43,2.2,1.33,3.14,3.56,3.16,5.17Z"/><path d="M264.39,84.16c3.95,.1,6.76,2.17,7.67,5.13,.96,3.14-.02,6.64-2.8,8.36-4.79,2.97-9.66,5.83-14.65,8.44-3.54,1.85-7.74,.26-9.62-3.19-1.87-3.44-.87-7.75,2.54-9.84,4.6-2.81,9.29-5.47,14.01-8.08,1.04-.58,2.35-.68,2.86-.82Z"/></svg>