<?xml version="1.0" encoding="utf-8"?>
<!-- Generator: Adobe Illustrator 26.3.1, SVG Export Plug-In . SVG Version: 6.00 Build 0)  -->
<svg version="1.1" id="Layer_1" xmlns="http://www.w3.org/2000/svg" xmlns:xlink="http://www.w3.org/1999/xlink" x="0px" y="0px"
	 viewBox="0 0 285 230.6" style="enable-background:new 0 0 285 230.6;" xml:space="preserve">
<style type="text/css">
	.st0{fill:#DE5499;}
</style>
<path class="st0" d="M73.7,126.9c1.2-34.5,30.6-65.7,69.8-64.2c38.4,1.4,64,33.4,64.6,64.4c-1.8-0.2-3.6-0.3-5.4-0.6
	c-13.7-1.7-26.6,1.3-39.3,6.2c-3.6,1.4-7.3,2.6-10.9,4c-7.9,3.2-15.7,2.9-23.6-0.1c-8.2-3-16.4-5.9-24.8-8.4
	c-9-2.7-18.3-2.6-27.5-1.5c-0.7,0.1-1.3,0.1-2,0.2C74.4,127,74.2,127,73.7,126.9L73.7,126.9z"/>
<path class="st0" d="M87.6,143.2c8.8-0.1,17.1,2.5,25.3,5.5c5.5,2,10.9,4,16.5,5.8c9.5,3.1,18.8,1.9,28-1.5
	c7.1-2.6,14.2-5.2,21.4-7.5c10.9-3.5,21.9-2.6,32.9-0.4c12.8,2.5,24.9,7.1,37,11.7c3.6,1.4,5.2,5,3.9,8.4c-1.3,3.5-4.8,5.1-8.6,3.9
	c-8.8-2.9-17.4-6.3-26.3-8.8c-6.6-1.8-13.4-2.8-20.2-3.7c-7.8-1-15.1,1.3-22.4,3.9c-7.6,2.7-15.2,5.5-23,7.7
	c-11.5,3.2-22.7,0.8-33.6-3.2c-4.1-1.5-8.2-2.9-12.3-4.6c-11.5-4.7-23.3-4.7-35.2-2c-11.2,2.5-21.9,6.6-32.6,10.5
	c-1.4,0.5-3.2,0.7-4.7,0.5c-2.8-0.5-4.8-3.1-5-5.9c-0.1-2.9,1.4-5.5,4.5-6.5c10.1-3.5,20.2-7.1,30.4-10.1
	C71.5,144.3,79.5,143.3,87.6,143.2L87.6,143.2z"/>
<path class="st0" d="M94,173.1c7.8-0.1,15,2.2,22.2,4.8c4.8,1.8,9.6,3.5,14.5,5.1c8.4,2.8,16.6,1.6,24.7-1.3
	c6.3-2.3,12.5-4.6,18.9-6.6c9.6-3.1,19.3-2.3,28.9-0.4c11.2,2.2,21.9,6.2,32.6,10.3c3.1,1.2,4.6,4.4,3.5,7.4
	c-1.1,3.1-4.2,4.5-7.5,3.4c-7.7-2.6-15.3-5.6-23.1-7.8c-5.8-1.6-11.8-2.5-17.7-3.2c-6.9-0.9-13.3,1.2-19.7,3.4
	c-6.7,2.4-13.4,4.9-20.2,6.7c-10.1,2.8-20,0.7-29.6-2.8c-3.6-1.3-7.2-2.6-10.8-4c-10.1-4.1-20.5-4.1-31-1.8
	c-9.9,2.2-19.2,5.8-28.7,9.2c-1.3,0.5-2.8,0.6-4.1,0.4c-2.5-0.4-4.2-2.7-4.4-5.2c-0.1-2.6,1.3-4.8,3.9-5.8
	c8.9-3.1,17.8-6.2,26.8-8.9C79.9,174,86.9,173.2,94,173.1L94,173.1z"/>
<path class="st0" d="M147.5,31.3c0,2.3,0.1,4.5,0,6.8c-0.1,3.8-3,6.7-6.7,6.6c-3.6,0-6.4-2.9-6.4-6.6c-0.1-4.5-0.1-9,0-13.5
	c0.1-3.7,3-6.5,6.5-6.5c3.6,0,6.4,2.8,6.6,6.5C147.6,26.8,147.5,29.1,147.5,31.3L147.5,31.3z"/>
<path class="st0" d="M42.1,136.6c-2.2,0-4.4,0.1-6.5,0c-3.8-0.1-6.7-3-6.6-6.7c0.1-3.6,2.9-6.4,6.6-6.4c4.5-0.1,9-0.1,13.5,0
	c3.7,0.1,6.5,3,6.5,6.6c0,3.6-2.8,6.4-6.5,6.5C46.7,136.7,44.4,136.6,42.1,136.6z"/>
<path class="st0" d="M239.8,136.6c-2.3,0-4.7,0.1-7,0c-3.7-0.1-6.5-3-6.5-6.6c0-3.6,2.9-6.4,6.6-6.5c4.5-0.1,9-0.1,13.5,0
	c3.7,0.1,6.6,2.9,6.6,6.5c0,3.6-2.7,6.5-6.4,6.6C244.3,136.7,242.1,136.6,239.8,136.6L239.8,136.6z"/>
<path class="st0" d="M186.9,57c-4.8,0-8.1-5-5.9-9.3c2.2-4.4,4.8-8.7,7.4-12.8c1.8-2.8,5.7-3.5,8.5-1.9c2.8,1.6,4.2,5.4,2.7,8.3
	c-2.3,4.4-4.9,8.8-7.5,13C191,56.2,189.1,57,186.9,57L186.9,57z"/>
<path class="st0" d="M94.2,57c-1.6,0-3.6-1-4.8-3.1c-2.4-4-4.8-8-7-12.1c-1.7-3.1-0.5-7,2.5-8.7c3-1.8,6.9-0.9,8.8,2.2
	c2.5,4,4.9,8.1,7.1,12.3C103.1,51.9,99.9,57,94.2,57z"/>
<path class="st0" d="M67.9,83.3c-0.1,5.6-4.9,8.8-9.1,6.8c-4.5-2.2-8.8-4.8-13-7.5c-2.8-1.8-3.5-5.7-1.8-8.6
	c1.6-2.8,5.4-4.2,8.3-2.6c4.4,2.3,8.6,4.8,12.9,7.4C67,79.9,67.9,81.9,67.9,83.3L67.9,83.3z"/>
<path class="st0" d="M231.9,70.8c3.5,0.1,5.9,1.9,6.7,4.5c0.9,2.8,0,5.8-2.5,7.3c-4.2,2.6-8.5,5.1-12.9,7.4
	c-3.1,1.6-6.8,0.2-8.4-2.8c-1.6-3-0.8-6.8,2.2-8.6c4-2.5,8.1-4.8,12.3-7.1C230.3,71,231.4,70.9,231.9,70.8L231.9,70.8z"/>
</svg>
