<?xml version="1.0" encoding="UTF-8"?><svg id="Layer_1" xmlns="http://www.w3.org/2000/svg" viewBox="0 0 294 294"><defs><style>.cls-1{fill:#fff;}.cls-2{fill:#c07a35;}</style></defs><circle class="cls-2" cx="147" cy="147" r="147"/><g><path class="cls-1" d="M78.47,140.94c1.2-34.46,30.63-65.67,69.83-64.2,38.39,1.44,63.96,33.36,64.61,64.36-1.81-.18-3.59-.32-5.36-.55-13.7-1.72-26.65,1.32-39.3,6.22-3.6,1.39-7.27,2.59-10.85,4.02-7.91,3.16-15.7,2.88-23.64-.07-8.18-3.04-16.44-5.91-24.79-8.43-9-2.72-18.27-2.62-27.54-1.47-.65,.08-1.3,.14-1.96,.19-.28,.02-.56-.04-.99-.07Z"/><path class="cls-1" d="M92.33,157.23c8.83-.07,17.09,2.47,25.27,5.47,5.47,2.01,10.94,4,16.47,5.82,9.51,3.13,18.83,1.87,28.04-1.46,7.12-2.58,14.21-5.24,21.42-7.53,10.88-3.46,21.9-2.57,32.88-.39,12.77,2.53,24.92,7.07,37.04,11.67,3.55,1.35,5.17,5.01,3.93,8.36-1.29,3.48-4.83,5.14-8.56,3.88-8.76-2.95-17.4-6.33-26.29-8.82-6.55-1.83-13.39-2.82-20.16-3.67-7.78-.98-15.14,1.34-22.4,3.89-7.62,2.67-15.2,5.52-22.98,7.66-11.51,3.18-22.68,.8-33.6-3.23-4.1-1.51-8.24-2.92-12.28-4.58-11.52-4.72-23.27-4.67-35.21-2.01-11.2,2.49-21.88,6.56-32.63,10.47-1.43,.52-3.17,.73-4.66,.47-2.84-.49-4.81-3.11-4.95-5.92-.14-2.93,1.44-5.5,4.47-6.54,10.12-3.47,20.21-7.05,30.44-10.15,7.69-2.33,15.68-3.28,23.75-3.38Z"/><path class="cls-1" d="M98.78,187.11c7.77-.06,15.04,2.17,22.23,4.82,4.81,1.77,9.63,3.52,14.5,5.12,8.37,2.75,16.57,1.65,24.67-1.29,6.26-2.27,12.51-4.61,18.85-6.63,9.57-3.05,19.27-2.26,28.93-.35,11.24,2.23,21.93,6.22,32.59,10.27,3.12,1.18,4.55,4.4,3.46,7.36-1.13,3.07-4.25,4.52-7.54,3.41-7.71-2.6-15.31-5.57-23.13-7.76-5.77-1.61-11.78-2.48-17.74-3.23-6.85-.86-13.32,1.18-19.71,3.42-6.7,2.35-13.38,4.85-20.22,6.74-10.13,2.8-19.96,.71-29.57-2.84-3.61-1.33-7.25-2.57-10.8-4.03-10.14-4.15-20.47-4.11-30.98-1.77-9.86,2.19-19.25,5.78-28.71,9.21-1.26,.46-2.79,.64-4.1,.41-2.5-.43-4.24-2.74-4.36-5.21-.13-2.58,1.27-4.84,3.94-5.76,8.9-3.06,17.78-6.2,26.79-8.93,6.77-2.05,13.8-2.88,20.89-2.97Z"/><path class="cls-1" d="M152.28,45.3c0,2.26,.05,4.51,0,6.77-.1,3.84-2.98,6.69-6.66,6.63-3.58-.05-6.4-2.87-6.45-6.61-.07-4.51-.07-9.02,0-13.53,.06-3.71,2.97-6.53,6.54-6.53,3.57,0,6.44,2.8,6.56,6.52,.07,2.25,.01,4.51,.01,6.77Z"/><path class="cls-1" d="M46.83,150.61c-2.18,0-4.37,.05-6.55,0-3.84-.11-6.69-3.01-6.63-6.67,.06-3.56,2.91-6.39,6.64-6.44,4.51-.06,9.03-.07,13.54,0,3.71,.07,6.52,2.97,6.52,6.55,0,3.59-2.78,6.42-6.53,6.54-2.33,.07-4.66,.01-6.99,.02Z"/><path class="cls-1" d="M244.57,150.61c-2.33,0-4.66,.07-6.99-.01-3.71-.13-6.51-3.01-6.49-6.58,.02-3.56,2.85-6.45,6.56-6.51,4.51-.07,9.03-.07,13.54,0,3.73,.06,6.56,2.9,6.6,6.47,.04,3.58-2.74,6.48-6.45,6.62-2.25,.08-4.51,.02-6.77,.02Z"/><path class="cls-1" d="M191.65,71c-4.77-.02-8.05-4.96-5.87-9.26,2.23-4.4,4.78-8.66,7.41-12.84,1.78-2.83,5.67-3.52,8.54-1.88,2.84,1.62,4.23,5.36,2.67,8.32-2.33,4.44-4.89,8.76-7.51,13.03-1.13,1.84-3.06,2.62-5.24,2.62Z"/><path class="cls-1" d="M99,71c-1.63-.02-3.58-1.03-4.83-3.12-2.38-4-4.75-8.01-6.97-12.09-1.71-3.14-.51-7.02,2.47-8.74,3.04-1.76,6.91-.9,8.8,2.19,2.47,4.03,4.89,8.1,7.07,12.28,2.29,4.39-.87,9.44-6.54,9.48Z"/><path class="cls-1" d="M72.63,97.32c-.06,5.55-4.88,8.85-9.08,6.75-4.48-2.24-8.8-4.83-13.04-7.5-2.83-1.78-3.5-5.67-1.84-8.55,1.64-2.84,5.38-4.19,8.34-2.64,4.37,2.3,8.63,4.82,12.86,7.39,1.93,1.17,2.76,3.12,2.77,4.54Z"/><path class="cls-1" d="M236.6,84.8c3.47,.09,5.93,1.9,6.72,4.5,.85,2.76-.01,5.82-2.46,7.33-4.2,2.6-8.47,5.11-12.85,7.4-3.11,1.63-6.79,.23-8.43-2.8-1.64-3.01-.76-6.8,2.23-8.63,4.03-2.47,8.15-4.8,12.28-7.09,.92-.51,2.06-.6,2.51-.72Z"/></g></svg>